<svg width="31" height="36" fill="none" xmlns="http://www.w3.org/2000/svg"><path d="M30.96 21.365c-.626 8.332-7.545 14.61-15.46 14.625C7.569 35.99.65 29.697.04 21.365-.588 13.049 6.332 5.76 15.5 5.775c9.167 0 16.087 7.29 15.46 15.59z" fill="#E74C3C"/><path d="M19.658 6.306c-.129-.048-.257-.08-.401-.129A16.534 16.534 0 0 0 15.5 5.76c-2.328 0-12.202 1.573-9.183 5.683.626.851 1.621 1.333 2.617 1.67 2.986.995 6.357.85 9.167-.642 1.557-.82 3.66-1.83 5.458-1.092 2.248.931 2.617 4.415 2.617 6.518 0 7.048-5.988 13.036-13.036 13.036-7.048 0-12.731-5.699-13.004-12.538a13.778 13.778 0 0 0-.097 2.938c.626 8.332 7.546 14.61 15.46 14.625 7.932 0 14.851-6.293 15.461-14.625.53-7-4.302-13.245-11.302-15.06v.033z" fill="#C0392B"/><path d="M13.011 9.147s-.032-.144-.064-.369c-.048-.257-.128-.562-.208-.931-.113-.37-.241-.803-.434-1.252-.193-.45-.401-.9-.658-1.333-.514-.867-1.172-1.605-1.702-2.039a5.302 5.302 0 0 0-.658-.465l-.257-.129h-.048A1.439 1.439 0 0 1 8.42.72a1.377 1.377 0 0 1 1.878-.546c.064.032.129.08.177.112 0 0 .144.113.385.29.225.192.546.48.867.834.658.722 1.333 1.798 1.798 2.938.241.562.418 1.14.546 1.686.128.546.225 1.06.289 1.509.048.465.08.835.096 1.06 0 .24.016.385.016.385a.737.737 0 0 1-.706.77.732.732 0 0 1-.755-.594v-.016z" fill="#522100"/><path d="M18.952 4.46c1.717-.996 3.724-.675 5.65-.643.787 0 4.448-.192 4.592-1.429-.305 2.778-1.54 6.502-4.56 7.225-1.38.337-2.825.193-4.221.048-1.975-.193-3.95-.401-5.925-.594a13.652 13.652 0 0 1 3.918-4.27c.192-.129.369-.257.546-.354v.016z" fill="#27AE60"/><path d="M5.466 14.156a.788.788 0 0 1-.787.787.788.788 0 0 1-.787-.787.788.788 0 0 1 1.573 0zM6.83 17.415c0 .45-.369.82-.818.82a.809.809 0 0 1-.803-.82c0-.45.37-.802.803-.802.433 0 .818.369.818.802zM5.08 17.64a.603.603 0 0 1-.594.594.603.603 0 0 1-.594-.594c0-.32.257-.594.594-.594.338 0 .594.273.594.594zM8.74 20.69a1.364 1.364 0 1 1-2.728 0 1.363 1.363 0 1 1 2.729 0zM9.415 18.7a.466.466 0 1 1-.932-.001.466.466 0 0 1 .932 0zM4.984 20.466a.788.788 0 0 1-1.573 0c0-.434.353-.787.786-.787.434 0 .787.353.787.787zM12.177 20.947a.83.83 0 0 1-.835.835.83.83 0 0 1-.835-.835.83.83 0 0 1 .835-.834.83.83 0 0 1 .835.834zM13.878 20.37a.61.61 0 1 0 0-1.22.61.61 0 0 0 0 1.22zM10.17 23.26a.61.61 0 1 1-1.22 0 .61.61 0 0 1 1.22 0z" fill="#FF8073"/></svg>