<svg width="47" height="48" fill="none" xmlns="http://www.w3.org/2000/svg"><path d="M5.51 7.104c6.962 8.218 30.393 18.36 39.984 17.54.3-.033-.067 2.025.134 2.109C34.732 38.318 7.2 37.313 5.509 7.103z" fill="#F39C12"/><path d="M34.263 30.803c-10.695 0-19.03-7.732-21.59-17.808-3.03-1.958-5.557-3.983-7.18-5.891 1.59 28.603 26.343 31.03 38.227 21.373-2.963 1.473-6.193 2.31-9.474 2.31l.017.016z" fill="#E67E22"/><path d="M5.91 6.685c.051.134-.451.302-.4.419 4.434 12.352 19.247 26.009 39.984 17.54.284-.117.435-1.506.72-1.64-9.59.954-33.625-10.963-40.303-16.335v.016z" fill="#F1C40F"/><path d="m44.992 24.845 1.221-1.841s.787 1.289.787 1.84c0 .553-.72 1.842-1.373 1.909-.652.067-1.138-1.707-.636-1.908z" fill="#34495E"/><path d="M10.748 10.619c0 .435-.352.803-.77.803-.418 0-.77-.352-.77-.803 0-.452.352-.804.77-.804.418 0 .77.352.77.804zM11.267 13.681c0 .369-.285.67-.636.67-.352 0-.636-.301-.636-.67 0-.368.284-.669.636-.669.351 0 .636.301.636.67zM16.154 14.535c0 .569-.435 1.02-.988 1.02-.552 0-.987-.451-.987-1.02 0-.57.435-1.021.987-1.021.553 0 .988.452.988 1.021zM17.76 16.259c.324 0 .586-.277.586-.62 0-.341-.262-.619-.585-.619-.324 0-.586.278-.586.62 0 .342.262.619.586.619zM20.17 16.008c0 .25-.2.452-.434.452a.447.447 0 0 1-.436-.452c0-.251.201-.452.436-.452.234 0 .435.2.435.452zM16.673 17.765c0 .435-.335.787-.753.787-.419 0-.754-.352-.754-.787 0-.435.335-.786.754-.786.418 0 .753.351.753.786zM24.02 18.217c0 .251-.2.452-.435.452a.447.447 0 0 1-.435-.452c0-.25.2-.452.435-.452.234 0 .435.201.435.452zM28.07 22.318c.527 0 .955-.442.955-.988 0-.545-.428-.987-.954-.987-.527 0-.955.442-.955.987 0 .546.428.988.954.988zM30.966 21.749a.407.407 0 0 1-.402.401.407.407 0 0 1-.401-.401c0-.218.184-.402.401-.402.218 0 .402.184.402.402zM34.029 21.95c0 .334-.268.619-.586.619-.318 0-.586-.268-.586-.62 0-.351.268-.619.586-.619.318 0 .586.268.586.62zM36.305 22.485a.518.518 0 0 1-.502.519.518.518 0 0 1-.502-.519c0-.284.234-.519.502-.519s.502.235.502.519zM4.79 7.623C6.212 18.45 20.338 40.327 28.773 45.13c.268.15-1.138 1.64-1.02 1.841C12.505 50.37-9.905 33.766 4.79 7.623z" fill="#F39C12"/><path d="M5.359 7.505c-.034.134-.536 0-.57.118C1.912 20.46 6.983 40.327 28.775 45.13c.3.067 1.171-1.004 1.472-.954C21.744 39.473 8.053 15.79 5.36 7.49v.016z" fill="#F1C40F"/><path d="m28.238 45.013 1.992-.82s-.034 1.523-.318 1.975c-.285.452-1.59 1.121-2.176.803-.586-.318-.034-2.075.485-1.958h.017z" fill="#34495E"/><path d="M7.283 13.547a.75.75 0 0 1-1.07.218.82.82 0 0 1-.218-1.104.75.75 0 0 1 1.07-.218.82.82 0 0 1 .218 1.104zM6.078 16.393a.63.63 0 0 1-.887.184c-.301-.201-.368-.62-.184-.92a.63.63 0 0 1 .887-.185c.301.201.368.62.184.92zM9.693 19.908a.968.968 0 0 1-1.372.284c-.452-.318-.569-.954-.284-1.422a.965.965 0 0 1 1.372-.285c.452.318.569.954.284 1.423zM10.932 22.083a.58.58 0 0 1-.82.168.632.632 0 0 1-.168-.854.58.58 0 0 1 .82-.167.632.632 0 0 1 .168.853zM12.254 23.439a.436.436 0 0 1-.602.134.452.452 0 0 1-.117-.62.436.436 0 0 1 .602-.133c.2.134.251.418.117.619zM8.405 22.887a.728.728 0 0 1-1.038.217c-.351-.234-.435-.72-.218-1.088.235-.351.703-.451 1.038-.217.335.234.435.72.218 1.088zM14.296 27.473a.436.436 0 0 1-.602.134.452.452 0 0 1-.118-.62.436.436 0 0 1 .603-.134c.2.134.251.419.117.62zM16.79 32.929a.933.933 0 0 1-1.306.284 1.004 1.004 0 0 1-.267-1.355.949.949 0 0 1 1.322-.285c.435.301.552.904.268 1.356h-.017zM18.196 34.385a.402.402 0 0 1-.553.117.426.426 0 0 1-.117-.569.402.402 0 0 1 .553-.117.423.423 0 0 1 .117.569zM20.656 36.327a.58.58 0 0 1-.82.167.632.632 0 0 1-.167-.854.58.58 0 0 1 .82-.167.632.632 0 0 1 .167.854zM22.246 38.084a.511.511 0 0 1-.703.15.515.515 0 0 1-.134-.72.511.511 0 0 1 .703-.15.515.515 0 0 1 .134.72z" fill="#F39C12"/><path d="M6.982.292C7.501-.177 8.756.074 9.308.258c.62.218 1.038.452 1.507.954.335.352.653.703.987 1.055.15.15.302.318.335.535.034.151 0 .318-.033.47-.034.15-.067.317-.1.468-.051.25-.101.519-.185.753-.285.786-1.004 1.44-1.808 1.49-.82.05-1.657-.57-1.757-1.406 0 .083-.569.535-.653.636-.167.2-.368.435-.502.652-.318.502-.25 1.205.117 1.674.1.117.218.251.201.402 0 .134-.117.234-.217.318-.318.25-.72.552-1.038.234-.251-.234-.402-.87-.301-1.205-.1.385-.218.753-.335 1.138-.1.335-.067.469-.402.435-.452-.05-.586-.535-.552-.937.05-.67.536-1.44.82-2.025.636-1.34 1.339-2.745 1.339-4.285 0-.368-.033-.736.1-1.071.034-.1.1-.184.185-.251h-.034z" fill="#F1C40F"/><path d="M7.585.04c.1.168.167.37.15.654 0 .2-.05.385-.15.552-.05.402.05.736.284 1.004.034.167.067.318.084.469.284.284.418.602.468.987.603.368 1.34.686 1.942.653.67-.017 1.155-.536 1.69-.97 0-.051.017-.101.034-.151.033-.151.067-.318.033-.47-.05-.217-.2-.384-.334-.535-.335-.351-.653-.703-.988-1.054C10.33.677 9.911.443 9.292.225 8.907.091 8.17-.06 7.585.025V.04z" fill="#FFDE59"/></svg>