<svg width="277" height="229" fill="none" xmlns="http://www.w3.org/2000/svg"><path d="M239.931 278.202H74.462c-6.166 0-11.787-2.828-15.432-7.767-3.646-4.94-4.736-11.141-2.964-17.034l17.477-57.848c2.487-8.176 9.88-13.661 18.396-13.661h50.387c5.383 0 10.527 2.282 14.172 6.234 3.646 3.952 5.451 9.301 5.008 14.649l-3.781 44.391c-.239 2.623.647 5.144 2.419 7.086 1.771 1.942 4.224 2.998 6.847 2.998h26.88a4.958 4.958 0 0 1 4.974 4.974 4.958 4.958 0 0 1-4.974 4.974h-26.88c-5.382 0-10.527-2.282-14.172-6.234-3.645-3.952-5.451-9.301-5.008-14.65l3.782-44.39c.238-2.624-.648-5.145-2.419-7.087-1.772-1.941-4.225-2.998-6.848-2.998H91.939a9.24 9.24 0 0 0-8.891 6.61L65.57 256.296c-.852 2.862-.341 5.86 1.43 8.245a9.214 9.214 0 0 0 7.461 3.747h165.469a4.958 4.958 0 0 1 4.974 4.974 4.958 4.958 0 0 1-4.974 4.974v-.034z" fill="#BDC3C7"/><path d="M235.025 184.481H82.265c-11.005 0-20.578-7.802-22.827-18.567l-26.64-128.13 235.035 51.613-9.71 74.745c-1.499 11.583-11.446 20.305-23.132 20.305l.034.034zM45.675 50.798l23.507 113.106c1.294 6.166 6.78 10.663 13.082 10.663h152.761c6.712 0 12.401-5.008 13.253-11.651l8.551-65.718-211.154-46.4z" fill="#BDC3C7"/><path d="M105.328 184.481c-2.419 0-4.531-1.738-4.906-4.191L80.935 55.295a4.995 4.995 0 0 1 4.157-5.69 5.013 5.013 0 0 1 5.689 4.157l19.487 124.995a4.995 4.995 0 0 1-4.156 5.69c-.273.034-.511.068-.784.068v-.034zM135.955 184.481a4.955 4.955 0 0 1-4.94-4.634L123.18 64.8c-.171-2.726 1.874-5.11 4.633-5.28 2.691-.171 5.11 1.873 5.281 4.632l7.835 115.048c.205 2.726-1.873 5.11-4.633 5.281h-.341zM167.945 181.142a4.958 4.958 0 0 1-4.974-4.974V72.533a4.958 4.958 0 0 1 4.974-4.974 4.958 4.958 0 0 1 4.974 4.974v103.635a4.958 4.958 0 0 1-4.974 4.974zM200.037 184.481h-.238c-2.76-.136-4.872-2.453-4.736-5.179l4.497-96.685a4.98 4.98 0 0 1 4.974-4.735h.239c2.759.136 4.872 2.453 4.735 5.178l-4.497 96.685a4.978 4.978 0 0 1-4.974 4.736zM228.143 181.142h-.511c-2.725-.272-4.735-2.725-4.462-5.451l8.891-88.44c.273-2.726 2.692-4.702 5.451-4.463a4.977 4.977 0 0 1 4.463 5.45l-8.892 88.441a4.978 4.978 0 0 1-4.94 4.463z" fill="#BDC3C7"/><path d="M259.009 123.874c-.204 0-.409 0-.647-.034L48.571 97.164c-2.726-.34-4.634-2.827-4.293-5.553.34-2.725 2.862-4.633 5.553-4.292l209.791 26.675c2.726.341 4.634 2.828 4.293 5.553-.307 2.521-2.453 4.361-4.94 4.361l.034-.034zM255.5 150.992h-.204L58.553 143.02c-2.76-.102-4.872-2.419-4.77-5.178.102-2.726 2.453-4.838 5.178-4.77l196.744 7.972c2.725.102 4.871 2.419 4.769 5.178-.102 2.692-2.316 4.77-4.974 4.77z" fill="#BDC3C7"/><path d="m261.598 106.635-39.144-9.641 5.587-22.655 39.145 9.64c6.268 1.534 10.084 7.87 8.551 14.105-1.533 6.269-7.87 10.084-14.105 8.551h-.034z" fill="#E74C3C"/><path d="M272.296 86.808c-2.998 6.711-11.243 10.152-18.295 8.38-9.232-2.316-18.294-4.905-26.914-9.028a11.254 11.254 0 0 1-1.737-1.056l-2.93 11.856 39.144 9.641c6.269 1.533 12.571-2.282 14.104-8.55 1.057-4.26-.408-8.484-3.406-11.277l.034.034zM24.45 5.419l33.455 35.635-20.61 19.35-33.456-35.6c-5.348-5.69-5.076-14.65.614-19.998C10.142-.543 19.102-.27 24.45 5.419z" fill="#C0392B"/><path d="M20.294 14.822c0 3.713-3.032 6.745-6.745 6.745-3.714 0-6.746-3.032-6.746-6.745 0-3.714 3.032-6.746 6.746-6.746 3.713 0 6.745 3.032 6.745 6.746zM43.46 41.667a4.187 4.187 0 0 1-4.19 4.19 4.187 4.187 0 0 1-4.19-4.19 4.187 4.187 0 0 1 4.19-4.19 4.187 4.187 0 0 1 4.19 4.19z" fill="#ECF0F1"/></svg>