<svg width="77" height="47" fill="none" xmlns="http://www.w3.org/2000/svg"><path d="M0 32.306c5.25.901 26.899 9.933 31.522 14.674 4.37-8.032 10.521-4.624 24-13.792C69 24.019 70.137 16.143 76.172 12.695 69.94 12.617 47.47 4.428 42.14 0c-2.077 7.17-14.086 8.17-20.826 13.498C14.575 18.828 6.641 29.778 0 32.286v.02z" fill="#ECF0F1"/><path d="M2.625 30.994c5.25.9 25.351 9.403 29.975 14.144 4.565-4.623 9.443-2.782 22.922-11.93C69 24.037 69.745 17.337 74.584 13.83c-6.23-.078-28.78-6.308-34.108-10.736-2.9 3.017-12.402 5.094-19.141 10.423-6.74 5.329-14.713 15.164-18.71 17.476z" fill="#C0392B"/><path d="M60.243 11.265c-6.504 1.156-12.95 2.586-19.356 4.232-11.892 3.036-23.823 6.308-34.5 12.44-1.45 1.372-2.743 2.469-3.781 3.056 1.351.236 3.683.96 6.465 2.018 11.5-6.602 24.254-10.657 37.027-14.243 7.582-2.115 15.223-3.78 22.922-5.328l.823-.177c-2.586-.47-5.72-1.214-9.012-2.096-.196.04-.411.078-.607.118l.02-.02z" fill="#F39C12"/><path d="M61.791 17.887c-1.704.862-3.193 1.606-4.996 2.233-3.546 1.235-4.232 2.508-6.582 5.25-2.724 3.175-6.015 5.33-9.09 8.131-3.586 3.272-6.368 7.17-8.974 11.226.157.137.314.274.431.411 4.565-4.623 9.443-2.782 22.922-11.93 13.342-9.071 14.204-15.732 18.906-19.259-4.154 1.626-8.581 1.9-12.637 3.938h.02z" fill="#9E2F23"/><path d="M48.41 19.337c0 4.369-5.603 7.915-12.519 7.915-6.915 0-12.519-3.546-12.519-7.915 0-4.37 5.604-7.915 12.52-7.915 6.915 0 12.518 3.546 12.518 7.915z" fill="#F1C40F"/></svg>