<svg width="37" height="35" fill="none" xmlns="http://www.w3.org/2000/svg"><path d="M28.985 3.11a1.543 1.543 0 0 1-1.198.67c-.77.029-1.412-.67-1.412-1.412v-.043c0-.085 0-.157.029-.242L21.169 0l-4.822 3.595c.143.784-.3 1.697-1.34 1.697-.272 0-.514-.071-.7-.185l-3.666 2.738c.885.728.585 2.54-.87 2.54-.699 0-1.127-.414-1.284-.928L3.58 13.11c.115.785-.328 1.655-1.355 1.655-.257 0-.47-.057-.656-.157L0 15.777l36.203-9.8-7.218-2.867z" fill="#FFDF5C"/><path d="m36.103 8.987.1-3.01L0 15.777l.071 1.668c.229.1.414.314.414.642v.086c0 .3-.143.5-.342.613.756.656.798 1.955.114 2.668l.071 1.44h.014c1.327 0 1.341 1.998.072 2.083l.042.984c1.712.343 1.77 2.939.157 3.424l.029.57c.442-.242 1.141-.057 1.141.614v.085c0 .642-.642.842-1.084.642l.143 3.081 34.634-7.845.071-1.897c-.67-.2-.656-1.27.057-1.427l.114-3.337h-.028c-.97 0-.97-1.498 0-1.498.028 0 .057 0 .085.014v-.5c-.599-.142-1.07-.755-1.07-1.383v-.086c0-.713.528-1.255 1.184-1.383l.1-2.853c-.228.257-.556.428-.998.428-1.826 0-1.826-2.825 0-2.825.242 0 .442.057.613.129-.085-.371.072-.813.5-.913v-.014zM16.704 9.072c0 .656-1.156 1.184-2.596 1.184-1.441 0-2.597-.528-2.597-1.184 0-.656 1.156-1.184 2.597-1.184 1.44 0 2.596.528 2.596 1.184zM10.042 11.226c0 .214-.356.385-.799.385-.442 0-.798-.17-.798-.385 0-.214.356-.385.798-.385.443 0 .8.171.8.385zM12.867 11.155c0 .171-.3.314-.67.314-.372 0-.671-.143-.671-.314s.3-.314.67-.314c.371 0 .67.143.67.314zM23.066 5.577c0 .571-1.184 1.042-2.64 1.042-1.454 0-2.638-.471-2.638-1.042 0-.57 1.184-1.04 2.639-1.04 1.455 0 2.639.47 2.639 1.04zM25.105 3.88c0 .214-.456.385-1.012.385-.557 0-1.013-.171-1.013-.385s.456-.385 1.013-.385c.556 0 1.012.171 1.012.385zM20.798 8.045c0 .228-.428.414-.956.414s-.956-.186-.956-.414c0-.228.428-.413.956-.413s.956.185.956.413zM31.824 5.577c0 .571-1.141 1.042-2.568 1.042-1.426 0-2.567-.471-2.567-1.042 0-.57 1.141-1.04 2.567-1.04 1.427 0 2.568.47 2.568 1.04zM22.281 2.097c0 .157-.285.3-.642.3-.356 0-.642-.129-.642-.3 0-.171.286-.3.642-.3.357 0 .642.129.642.3zM25.961 7.332c0 .157-.3.3-.684.3-.385 0-.685-.129-.685-.3 0-.171.3-.3.685-.3.385 0 .684.129.684.3zM6.533 12.91c0 .242-.385.427-.856.427-.47 0-.856-.185-.856-.428 0-.242.386-.428.856-.428.471 0 .856.2.856.428z" fill="#F1C40F"/><path d="M13.337 21.154c0-1.626 1.17-2.953 2.597-2.953 1.426 0 2.596 1.327 2.596 2.953s-1.17 2.953-2.597 2.953c-1.426 0-2.596-1.327-2.596-2.953zM29.67 10.37c0-.727.514-1.312 1.156-1.312.642 0 1.155.585 1.155 1.312 0 .728-.514 1.313-1.155 1.313-.642 0-1.156-.585-1.156-1.313zM6.105 25.976c0-1.327.942-2.397 2.111-2.397 1.17 0 2.112 1.07 2.112 2.397 0 1.326-.942 2.396-2.112 2.396-1.17 0-2.11-1.07-2.11-2.396zM25.305 24.92c0-1.398.999-2.539 2.24-2.539 1.24 0 2.24 1.127 2.24 2.54 0 1.411-1 2.538-2.24 2.538-1.241 0-2.24-1.127-2.24-2.539zM15.577 29.285c0-.5.357-.899.799-.899.442 0 .798.4.798.899 0 .5-.356.899-.798.899-.443 0-.8-.4-.8-.899zM18.886 13.337c0-.784.556-1.412 1.241-1.412s1.241.628 1.241 1.412c0 .785-.556 1.412-1.24 1.412-.686 0-1.242-.627-1.242-1.412zM8.017 19.072c0-1.127.813-2.04 1.797-2.04s1.797.913 1.797 2.04-.813 2.04-1.797 2.04-1.797-.913-1.797-2.04zM1.697 24.278c0-.356.257-.642.571-.642.314 0 .57.286.57.642 0 .357-.256.642-.57.642-.314 0-.57-.285-.57-.642z" fill="#F39C12"/><path d="M5.092 28.729c0-.614.443-1.127.985-1.127s.984.5.984 1.127-.442 1.127-.984 1.127-.985-.5-.985-1.127zM28.287 15.149c0-1.255.898-2.268 1.997-2.268 1.098 0 1.997 1.013 1.997 2.268s-.9 2.268-1.997 2.268c-1.099 0-1.997-1.013-1.997-2.268zM30.284 23.08c0-.656.47-1.198 1.055-1.198s1.056.542 1.056 1.198c0 .656-.471 1.198-1.056 1.198-.585 0-1.055-.528-1.055-1.198zM1.869 18.201c0-.698.499-1.283 1.127-1.283.627 0 1.126.57 1.126 1.284 0 .713-.499 1.283-1.126 1.283-.628 0-1.127-.57-1.127-1.284zM23.394 19.899c.457 0 .827-.422.827-.942s-.37-.94-.827-.94c-.457 0-.827.42-.827.94s.37.942.827.942zM25.434 14.536c0-.657.47-1.199 1.055-1.199s1.056.528 1.056 1.199c0 .67-.471 1.198-1.056 1.198-.585 0-1.055-.542-1.055-1.198zM17.83 22.438c0-.656.471-1.198 1.056-1.198.585 0 1.056.528 1.056 1.198 0 .67-.471 1.198-1.056 1.198-.585 0-1.055-.542-1.055-1.198zM13.052 28.8c0-.656.47-1.198 1.056-1.198.584 0 1.055.528 1.055 1.198 0 .67-.47 1.198-1.055 1.198s-1.056-.542-1.056-1.198zM11.155 16.476c0-.386.285-.7.628-.7.342 0 .627.314.627.7 0 .385-.27.698-.627.698s-.628-.313-.628-.698z" fill="#F39C12"/></svg>