<svg width="46" height="42" fill="none" xmlns="http://www.w3.org/2000/svg"><path d="M41.073 12.377h-36.5c-2.337 7.326 2.084 22.776 2.084 22.776 0 3.432 7.24 6.19 16.145 6.19 8.904 0 16.145-2.78 16.145-6.19 0 0 4.42-15.45 2.105-22.776h.021z" fill="#8E44AD"/><path d="M31.79 13.998c-5.325-.02-10.63.084-15.935.316-1.431.063-2.841.126-4.273.21-1.431.127-2.968-.02-4.42-.02-.127 0-.274 0-.4.042-.253.084-.421.294-.59.484a7.75 7.75 0 0 1-2.23 1.726c-.043.968 0 2 .041 3.031.127.042.253.105.358.19.568.505.232 1.452.526 2.146.4.948 1.705 1.053 2.695.8.99-.231 2.084-.631 2.989-.168.863.442 1.2 1.474 1.536 2.379.337.905.927 1.915 1.895 2 .926.084 1.705-.716 2.59-.99 1.536-.484 3.093.568 4.293 1.62 1.221 1.053 2.59 2.253 4.19 2.064 2.567-.295 3.788-3.958 6.377-4.126 2.358-.168 4.442 3.494 6.715 1.2.674-.674 1.01-1.621 1.41-2.505.4-.884.948-1.768 1.853-2.126.021 0 .063 0 .105-.021.295-2.8.38-5.62 0-7.957a9.32 9.32 0 0 0-1.536-.21 354.307 354.307 0 0 0-8.189-.106v.021z" fill="#64307A"/><path d="M44.589 16.503c.484.063.947.526 1.284-.21.147-.295.126-.653.126-.969-.021-.8-.042-1.6-.084-2.4-2.758.611-4.82-1.052-7.494-1.094a353.747 353.747 0 0 0-8.188-.105c-5.326-.021-10.63.084-15.935.316-1.432.063-2.842.126-4.273.21-1.432.126-2.968-.021-4.42-.021-.127 0-.275 0-.4.042-.253.084-.422.295-.59.484a8.114 8.114 0 0 1-4.568 2.568c-.105.737-.084 1.621.61 1.98.653.357 1.558-.127 2.147.399.569.505.232 1.453.527 2.147.4.947 1.705 1.053 2.694.8.99-.231 2.084-.631 2.99-.168.862.442 1.199 1.473 1.536 2.378.337.905.926 1.916 1.894 2 .926.105 1.705-.695 2.59-.99 1.536-.483 3.094.569 4.294 1.621 1.2 1.053 2.589 2.253 4.189 2.063 2.568-.294 3.789-3.957 6.378-4.125 2.357-.169 4.441 3.494 6.715 1.2.673-.674 1.01-1.621 1.41-2.506.4-.884.947-1.768 1.852-2.126 1.327-.547 3.347.169 3.832-1.62.147-.569-.169-1.516.61-1.832.105-.042.21-.042.295-.042h-.021z" fill="#F1DF98"/><path d="M.468 17.156a.84.84 0 0 1 .4-.232c2.147-.758 3.81-2.589 5.662-3.873.358-.253.716-.526 1.095-.8a64.574 64.574 0 0 0-2-.042c-.126 0-.274 0-.4.042-.252.084-.42.295-.59.484a8.113 8.113 0 0 1-4.567 2.568c-.105.674-.084 1.432.42 1.853h-.02zM8.151 16.714c.8-1.01 1.726-1.895 2.568-2.842.4-.61.842-1.179 1.305-1.747l-1.41.063c.021.463-.168.947-.716 1.137.358-.127-.42.315-.484.357-.274.19-.547.358-.82.548-.59.4-1.18.779-1.727 1.2-1.263.926-2.42 1.978-3.768 2.757.126.505 0 1.137.232 1.621.273.653.968.884 1.684.905 1.157-1.242 2.084-2.694 3.136-4.041v.042zM11.709 24.586c.968-4.546 2.252-9.009 5.304-12.672-.905.042-1.81.042-2.694.085-.21 0-.421 0-.632.02.295.337.421.8.169 1.242-.421.716-.948 1.348-1.474 1.958-1.179 1.726-2.105 3.62-3.094 5.473.631.505.947 1.368 1.242 2.168.252.653.61 1.348 1.158 1.726h.02zM38.063 13.935c-.695-.105-.884-.695-.737-1.22-.19 0-.358-.043-.547-.043-.61 0-.926-.442-1.01-.926-1.832-.021-3.684-.063-5.515-.084-3.853 0-7.705.063-11.536.19.232.252.358.61.21.967-.652 1.663-1.241 3.347-1.83 5.031-.106 2-.422 3.958-.822 5.915 1.095.169 2.169.927 3.032 1.706.673.589 1.431 1.22 2.23 1.641-.588-3.304-.546-6.672-1.052-10.02-.105-.778.506-1.283 1.116-1.347.063-.778.716-1.052 1.305-.884.505-.59 1.621-.631 1.853.358.778 3.284 3.262 5.6 5.262 8.21 1.6 0 3.094 1.663 4.61 1.915a17.44 17.44 0 0 1-1.558-2.147c-1.389-2.21-3.157-4.168-4.104-6.63-.316-.843.42-1.348 1.115-1.285 0-.042-.042-.063-.063-.105-.631-1.22 1.158-2.294 1.831-1.137.295-.084.61-.084.863.085.632.442 1.116 1.01 1.558 1.662-.105-.673.442-1.515 1.326-1.326.042 0 .063 0 .084.021.127-.526.61-.989 1.306-.8 2.02.527 3.767 1.81 5.767 2.442.484.148.927.316 1.369.506.042-.043.105-.064.168-.106.105-.042.21-.042.295-.042.484.063.947.526 1.284-.21.147-.295.126-.653.126-.969v-.442c-2.673.105-5.22-.505-7.915-.926h-.02z" fill="#D1AB6D"/><path d="M39.81 18.945c-1.62-.631-3.115-2.063-4.778-2.4a.917.917 0 0 1-.358-.147c.105.19.21.358.337.547 1.368 1.179 2.757 2.358 4.189 3.474.21-.169.42-.337.673-.443.653-.273 1.474-.231 2.19-.336-.758-.19-1.516-.4-2.253-.695z" fill="#D1AB6D"/><path d="M34.485 6.989c-3.158-1.01-7.22-1.621-11.662-1.621-4.442 0-8.504.61-11.662 1.62H4.573v5.39c0 3.873 8.167 7.009 18.25 7.009s18.25-3.136 18.25-7.01V6.99h-6.588z" fill="#F39C12"/><path d="M41.073 6.989c0 3.873-8.167 7.01-18.25 7.01s-18.25-3.137-18.25-7.01C4.573 3.115 12.74 0 22.823 0s18.25 3.136 18.25 6.989z" fill="#F1C40F"/><path d="M31.011 10.188c2.063-1.347 4.105-2.673 6.063-3.957.905-.59 1.831-1.158 2.757-1.747-.126-.106-.231-.232-.379-.337-1.094.737-2.189 1.494-3.283 2.252a233.435 233.435 0 0 0-5.179 3.79h.021zM13.371 12.988a76.572 76.572 0 0 1 3.558-2.905C20.571 6.673 24.528 3.368 28.675.4A46.868 46.868 0 0 0 22.823.02C12.74.021 4.573 3.157 4.573 7.01c0 2.547 3.536 4.757 8.798 5.978zM36.674 3.41l.82-.568a15.45 15.45 0 0 0-1.03-.484c-2.548 2.105-5.032 4.252-7.431 6.315-.78.694-1.558 1.389-2.316 2.084a213.215 213.215 0 0 1 9.957-7.368v.021zM20.15 13.914c2.505-2.4 5.073-4.736 7.683-7.01-3.116 2.169-6.063 4.526-8.988 6.926.42.042.863.063 1.305.084zM37.81 10.272c-.42.253-.82.527-1.241.78-.695.441-1.369.883-2.063 1.325.147-.042.294-.105.442-.147.02 0 .042-.021.063-.042l2.778-1.895.021-.02z" fill="#FFDE59"/><path d="M10.614 27.912c0 .569-.463 1.053-1.053 1.053-.589 0-1.052-.463-1.052-1.053 0-.59.463-1.052 1.052-1.052.59 0 1.053.463 1.053 1.052zM14.13 31.722a.822.822 0 0 1-.822.821.836.836 0 0 1-.82-.82c0-.443.378-.822.82-.822.442 0 .821.38.821.821zM15.14 30.396a.512.512 0 0 1-.506.505.512.512 0 0 1-.505-.505c0-.274.232-.505.505-.505.274 0 .506.232.506.505zM12.277 35.09a1.5 1.5 0 0 1-1.495 1.495 1.5 1.5 0 0 1-1.494-1.495 1.5 1.5 0 0 1 1.494-1.494 1.5 1.5 0 0 1 1.495 1.494zM14.634 35.175c0 .273-.21.484-.484.484a.476.476 0 0 1-.484-.484c0-.274.21-.485.484-.485s.484.21.484.485zM22.823 35.406c0 .737-.61 1.347-1.347 1.347s-1.347-.61-1.347-1.347.61-1.347 1.347-1.347c.736 0 1.347.61 1.347 1.347zM23.391 32.838a.279.279 0 0 1-.273.274.279.279 0 0 1-.274-.274c0-.147.126-.274.274-.274.147 0 .273.127.273.274zM32 35.532c0 .8-.652 1.453-1.452 1.453-.8 0-1.452-.653-1.452-1.453s.652-1.473 1.452-1.473c.8 0 1.453.652 1.453 1.473zM32.232 33.385a.557.557 0 0 1-.547.548.557.557 0 0 1-.547-.548c0-.294.252-.547.547-.547.295 0 .547.252.547.547zM33.18 30.27a1.32 1.32 0 0 1-1.327 1.326 1.32 1.32 0 0 1-1.326-1.326c0-.737.59-1.326 1.326-1.326.737 0 1.326.59 1.326 1.326zM38.231 31.722a.822.822 0 0 1-.82.821.836.836 0 0 1-.821-.82c0-.443.378-.822.82-.822.443 0 .822.38.822.821zM37.41 34.48c0 .231-.189.42-.42.42a.422.422 0 0 1-.421-.42c0-.232.189-.421.42-.421.232 0 .422.19.422.42zM28.275 31.028a.62.62 0 0 1-.632.631.62.62 0 0 1-.631-.631.62.62 0 0 1 .631-.632.62.62 0 0 1 .632.632z" fill="#64307A"/><path d="M26.149 34.648c0 .337-.274.59-.59.59a.602.602 0 0 1-.589-.59c0-.316.274-.59.59-.59.315 0 .589.275.589.59zM19.581 31.217a.822.822 0 0 1-.82.821.836.836 0 0 1-.822-.82c0-.443.38-.822.821-.822.442 0 .821.38.821.821zM17.94 34.943c0 .253-.211.463-.464.463a.467.467 0 0 1-.463-.463c0-.253.21-.463.463-.463s.463.21.463.463zM24.97 38.606c0 .589-.484 1.073-1.073 1.073-.59 0-1.074-.484-1.074-1.073 0-.59.484-1.074 1.073-1.074.59 0 1.074.484 1.074 1.074zM27.938 36.122c0 .252-.21.463-.463.463a.467.467 0 0 1-.463-.463c0-.253.21-.463.463-.463s.463.21.463.463zM35.621 33.343a.8.8 0 1 1-1.599 0 .8.8 0 0 1 1.6 0zM17.94 28.733a.822.822 0 0 1-1.643 0 .822.822 0 0 1 1.642 0zM10.025 32.438c0 .674-.548 1.22-1.2 1.22-.653 0-1.2-.546-1.2-1.22a1.2 1.2 0 0 1 1.2-1.2c.652 0 1.2.547 1.2 1.2zM7.898 25.723a.755.755 0 0 1-.757.758.755.755 0 0 1-.758-.758c0-.42.337-.758.758-.758.42 0 .757.337.757.758zM15.877 37.595a.61.61 0 1 1-1.222 0 .61.61 0 0 1 1.222 0z" fill="#9B59B6"/></svg>