<svg width="54" height="54" fill="none" xmlns="http://www.w3.org/2000/svg"><path d="M19.312 50.436c-1.62-.16-3.24-.517-4.764-1.042C4.414 45.87-.355 35.114 2.928 23.223 6.452 10.488 19.029 1.446 31.58 2.646c10.068.995 18.202 7.808 19.84 16.56 1.06 5.622-.685 11.518-4.573 15.37-1.966 1.954-4.276 3.203-6.314 4.282-1.456.783-2.83 1.514-3.882 2.395-.836.686-1.557 1.6-2.322 2.568-1.578 2.012-3.557 4.496-7.15 5.757-2.406.826-5.135 1.127-7.887.856l.02.002z" fill="#E3976E"/><path d="M19.472 48.816a18.343 18.343 0 0 1-4.204-.928C4.924 44.306 2.796 33.337 5.19 24.669 8.348 13.237 20.038 4.796 31.262 5.866c7.375.729 15.997 5.6 17.672 14.573.901 4.837-.584 9.892-3.885 13.191-1.705 1.703-3.764 2.8-5.74 3.866-1.56.831-3.039 1.63-4.304 2.668-1.029.844-1.82 1.87-2.673 2.928-1.531 1.937-3.11 3.949-6.027 4.96-2.061.723-4.431.982-6.85.743l.017.021z" fill="#ECF0F1"/><path d="M6.841 24.299C9.693 13.98 20.29 5.649 31.181 6.685c7.436.715 14.795 5.6 16.226 13.248.776 4.116-.43 8.745-3.445 11.738-2.82 2.814-6.886 3.89-9.935 6.426-3.07 2.554-4.22 6.223-8.199 7.604-3.163 1.106-6.846.9-9.971-.178C6.788 42.381 4.46 32.832 6.823 24.277l.018.022z" fill="#C0392B"/><path d="M27.156 16.514c-1.875.425-2.903 2.452-3.402 4.314-.48 1.863-.742 3.926-2.064 5.332-1.08 1.174-2.688 1.685-4.103 2.452-1.414.747-2.782 2.03-2.724 3.632 3.657-1.51 8.196-.59 10.97 2.246.662.676 1.254 1.464 2.049 1.995 1.702 1.114 4.202-.057 2.74-2.014-1.342-1.768-2.774-3.033-3.666-5.17-1.69-4.029-1.749-8.822.18-12.79l.02.003z" fill="#ECF0F1"/><path d="M38.47 12.272c4.385.69 7.953 4.865 7.946 9.317-.013 3.722-2.198 7.092-4.643 9.905-1.666 1.904-3.744 3.787-6.27 3.833-2.784.06-5.124-2.18-6.458-4.637-3.938-7.207-.972-20.075 9.425-18.418z" fill="#E74C3C"/><path d="M28.89 12.114c.697-.266 1.409-.491 2.003-.925.595-.434 1.043-1.178.878-1.904-.287-1.289-2.062-1.464-3.365-1.238-5.113.893-9.93 3.393-13.567 7.092-3.636 3.7-6.104 8.54-6.925 13.66-.12.815-.223 1.652.012 2.464.235.811.835 1.52 1.647 1.68 1.393.256 2.457-1.137 3.335-2.252 1.446-1.867 3.368-3.371 5.495-4.363 2.375-1.105 3.265-.938 3.4-3.703.227-4.49 2.819-8.785 7.086-10.492l.002-.019zM20.18 32.67c3.484.64 6.622 2.98 8.221 6.133.529 1.037.883 2.234.5 3.32-.517 1.446-2.16 2.111-3.65 2.437-4.43.961-9.18.196-13.097-2.043-1.25-.714-2.458-1.642-3.018-2.958-2.348-5.355 7.698-7.515 11.083-6.885l-.039-.004z" fill="#E74C3C"/><path d="M34.125 31.526a.52.52 0 0 1-.557.457.52.52 0 0 1-.458-.557.52.52 0 0 1 .558-.457.52.52 0 0 1 .457.557zM37.78 30.232a1.138 1.138 0 1 1-2.265-.225 1.138 1.138 0 0 1 2.265.225zM39.88 29.71a.414.414 0 0 1-.45.37.402.402 0 0 1-.37-.45.402.402 0 0 1 .451-.37.402.402 0 0 1 .37.45zM33.995 27.652a1.054 1.054 0 0 1-1.157.95 1.054 1.054 0 0 1-.95-1.159 1.054 1.054 0 0 1 1.158-.95c.585.059 1.007.573.95 1.159zM17.517 23.935a.657.657 0 0 1-.727.578.657.657 0 0 1-.6-.709.674.674 0 0 1 .729-.598c.37.037.634.358.598.73zM18.495 21.608a.372.372 0 0 1-.407.334.36.36 0 0 1-.334-.407.36.36 0 0 1 .407-.334.36.36 0 0 1 .334.407zM20.5 23.461a.766.766 0 0 1-.837.686.779.779 0 0 1-.686-.836.779.779 0 0 1 .836-.686c.41.04.727.427.686.836zM14.017 37.618a.569.569 0 1 1-1.132-.113.569.569 0 0 1 1.132.113zM16.852 35.849a1.18 1.18 0 0 1-1.287 1.055 1.18 1.18 0 0 1-1.055-1.287 1.18 1.18 0 0 1 1.287-1.055 1.18 1.18 0 0 1 1.055 1.287zM18.468 36.245a.393.393 0 0 1-.43.352.393.393 0 0 1-.35-.43.393.393 0 0 1 .428-.35.393.393 0 0 1 .352.428zM36.146 16.26a.766.766 0 0 1-.837.685.779.779 0 0 1-.685-.836.779.779 0 0 1 .836-.686c.41.04.726.426.686.836zM44.03 21.215a.548.548 0 1 1-1.093-.108.536.536 0 0 1 .6-.492c.313.03.524.288.493.6z" fill="#C0392B"/></svg>