<svg width="37" height="91" fill="none" xmlns="http://www.w3.org/2000/svg"><path d="M27.8 15.725v-6.6H9.175v6.6C9.175 23.95 0 29.95 0 42.55V84c0 3.7 8.275 6.725 18.5 6.725S37 87.725 37 84V42.55c0-12.575-9.175-18.6-9.175-26.825H27.8z" fill="#BDC3C7"/><path d="M18.475 87.1c-8.8 0-13.95-2.3-14.9-3.4V42.55c0-6 2.475-10.35 4.85-14.55 2.125-3.75 4.325-7.65 4.325-12.275v-3h11.4v3c0 4.625 2.2 8.5 4.325 12.275 2.375 4.2 4.85 8.55 4.85 14.55V83.7c-.925 1.1-6.075 3.4-14.9 3.4h.05z" fill="#D7DDE3"/><path d="M3.575 44.15v39.525c.925 1.1 6.075 3.4 14.9 3.4s13.95-2.3 14.9-3.4V44.15H3.575z" fill="#ECF0F1"/><path d="M29.125 9.925c0 2.125-4.775 3.875-10.65 3.875s-10.65-1.725-10.65-3.875S12.6 6.05 18.475 6.05s10.65 1.725 10.65 3.875z" fill="#C0392B"/><path d="M29.125 3.875h-21.3v6.05h21.3v-6.05z" fill="#C0392B"/><path d="M29.125 3.875c0 2.125-4.775 3.875-10.65 3.875S7.825 6.025 7.825 3.875 12.6 0 18.475 0s10.65 1.725 10.65 3.875z" fill="#E74C3C"/><path d="M25.95 3.6c0 1.35-3.35 2.45-7.475 2.45S11 4.95 11 3.6s3.35-2.45 7.475-2.45 7.475 1.1 7.475 2.45z" fill="#F1C40F"/><path d="M33.375 44.15c0 3-6.675 5.425-14.9 5.425-8.225 0-14.9-2.425-14.9-5.425s6.675-5.4 14.9-5.4c8.225 0 14.9 2.425 14.9 5.4zM11.875 53.6c0 .725-.575 1.3-1.3 1.3-.725 0-1.3-.575-1.3-1.3 0-.725.575-1.3 1.3-1.3.725 0 1.3.575 1.3 1.3zM15.25 59.475c0 .75-.6 1.375-1.375 1.375a1.371 1.371 0 0 1-1.375-1.375c0-.75.6-1.375 1.375-1.375s1.375.6 1.375 1.375zM11.65 64.625c0 .775-.625 1.4-1.4 1.4-.775 0-1.4-.625-1.4-1.4 0-.775.625-1.4 1.4-1.4.775 0 1.4.625 1.4 1.4zM15.9 67.75c0 .775-.625 1.4-1.4 1.4-.775 0-1.4-.625-1.4-1.4 0-.775.625-1.4 1.4-1.4.775 0 1.4.625 1.4 1.4zM19.85 70.45c0 .725-.575 1.3-1.3 1.3-.725 0-1.3-.575-1.3-1.3 0-.725.575-1.3 1.3-1.3.725 0 1.3.575 1.3 1.3zM14.6 76c0 .825-.65 1.475-1.475 1.475-.825 0-1.475-.65-1.475-1.475 0-.825.65-1.475 1.475-1.475.825 0 1.475.65 1.475 1.475z" fill="#fff"/></svg>