<svg width="35" height="75" fill="none" xmlns="http://www.w3.org/2000/svg"><path d="M34 54.645c0 10.737-7.392 19.44-16.491 19.44-9.1 0-16.492-8.703-16.492-19.44 0-10.736 7.393-19.421 16.492-19.421S34 43.927 34 54.646z" fill="#D35400"/><path d="M29.968 67.346a59.018 59.018 0 0 1-4.429 2.999A49.017 49.017 0 0 1 18.75 68a49.867 49.867 0 0 0 5.963-3.36 49.64 49.64 0 0 0 5.98 1.637c.19-.31.396-.604.569-.914a46.086 46.086 0 0 1-5.48-1.43c1.706-1.155 3.394-2.464 5.1-3.93.793.208 1.569.397 2.344.552.086-.327.155-.654.224-.982-.551-.12-1.103-.241-1.654-.379.689-.62 1.361-1.258 2.05-1.93.052-.517.104-1.051.121-1.586a64.21 64.21 0 0 1-3.343 3.206 48.194 48.194 0 0 1-5.722-1.982 57.574 57.574 0 0 0 4.636-3.843 50.48 50.48 0 0 0 4.48 1.361c0-.361-.034-.706-.051-1.05a46.917 46.917 0 0 1-3.602-1.086c1-.965 2-2 2.982-3.068-.104-.379-.207-.758-.328-1.137a60.827 60.827 0 0 1-3.74 3.826 50.245 50.245 0 0 1-5.135-2.258 65.897 65.897 0 0 0 4.24-3.826 55.15 55.15 0 0 0 4.48 1.792c-.138-.43-.293-.844-.465-1.24a61.216 61.216 0 0 1-3.257-1.31 56.434 56.434 0 0 0 1.689-1.81c-.19-.292-.362-.603-.569-.895-.707.775-1.396 1.533-2.102 2.257a50.91 50.91 0 0 1-4.619-2.499 56.764 56.764 0 0 0 3.412-3.36c-.258-.224-.534-.414-.81-.62a54.195 54.195 0 0 1-3.515 3.411 54.71 54.71 0 0 1-4.308-3.032 62.65 62.65 0 0 0 3.102-2.723 14.93 14.93 0 0 0-1.19-.293 64.063 64.063 0 0 1-2.722 2.343 56.207 56.207 0 0 1-2.723-2.343c-.396.086-.793.172-1.19.293a72.944 72.944 0 0 0 3.103 2.723 58.125 58.125 0 0 1-4.309 3.032 65.171 65.171 0 0 1-3.515-3.429c-.276.207-.552.397-.81.62a69.124 69.124 0 0 0 3.412 3.36 50.854 50.854 0 0 1-4.618 2.5 66.215 66.215 0 0 1-2.103-2.258c-.207.293-.379.586-.568.896.568.62 1.12 1.224 1.688 1.81-1.102.5-2.188.913-3.257 1.31-.172.413-.327.827-.465 1.24a44.912 44.912 0 0 0 4.48-1.792 60.67 60.67 0 0 0 4.24 3.826 54.322 54.322 0 0 1-5.135 2.257c-1.258-1.172-2.5-2.464-3.74-3.825-.12.379-.224.758-.327 1.137a56.239 56.239 0 0 0 2.98 3.067c-1.223.431-2.429.776-3.6 1.086L1 54.404c1.447-.379 2.946-.81 4.48-1.361a57.57 57.57 0 0 0 4.636 3.843 51.51 51.51 0 0 1-5.722 1.982 57.765 57.765 0 0 1-3.343-3.206c.017.535.07 1.069.12 1.586a42.606 42.606 0 0 0 2.052 1.93c-.552.138-1.103.276-1.655.379.07.327.138.655.224.982.776-.172 1.551-.345 2.344-.551a56.977 56.977 0 0 0 5.1 3.929 49.667 49.667 0 0 1-5.48 1.43c.173.31.38.62.57.913a49.629 49.629 0 0 0 5.98-1.637 55.143 55.143 0 0 0 5.962 3.36 51.394 51.394 0 0 1-6.79 2.344A54.243 54.243 0 0 1 5.05 67.33c1.207 1.637 2.62 3.016 4.222 4.101h.07c.999.586 1.998 1.138 2.98 1.637a14.03 14.03 0 0 0 4.55.966 50.12 50.12 0 0 1-6.17-2.965 49.13 49.13 0 0 0 6.808-2.498 52.377 52.377 0 0 0 6.807 2.499 50.113 50.113 0 0 1-6.17 2.963 14.131 14.131 0 0 0 4.567-.965c.982-.5 1.982-1.05 2.981-1.637h.07c1.585-1.085 3.015-2.481 4.221-4.101l-.017.017zm-.276-7.651a58.298 58.298 0 0 1-5.118 3.843 51.213 51.213 0 0 1-5.963-2.55 52.229 52.229 0 0 0 5.325-3.361 52.033 52.033 0 0 0 5.773 2.068h-.017zm-6.858-2.55a56.284 56.284 0 0 1-5.325 3.273 54.182 54.182 0 0 1-5.325-3.274 49.732 49.732 0 0 0 5.325-2.809 49.723 49.723 0 0 0 5.325 2.81zM12.718 49.82a53.676 53.676 0 0 0 4.79-2.947A53.677 53.677 0 0 0 22.3 49.82a55.986 55.986 0 0 1-4.79 3.326 55.969 55.969 0 0 1-4.791-3.326zm15.733 2.844a59.908 59.908 0 0 1-4.652 3.79 53.476 53.476 0 0 1-5.308-2.722c1.585-1 3.188-2.12 4.79-3.395a51.664 51.664 0 0 0 5.17 2.327zm-5.72-9.875a52.431 52.431 0 0 0 4.67 2.55 59.564 59.564 0 0 1-4.24 3.775 54.877 54.877 0 0 1-4.774-2.878 58.409 58.409 0 0 0 4.343-3.447zm-5.222-3.636a51.52 51.52 0 0 0 4.342 3.068 57.404 57.404 0 0 1-4.342 3.395 57.424 57.424 0 0 1-4.343-3.395 55.783 55.783 0 0 0 4.343-3.068zm-9.91 6.187a52.427 52.427 0 0 0 4.67-2.55 58.409 58.409 0 0 0 4.344 3.446 52.405 52.405 0 0 1-4.774 2.878 56.456 56.456 0 0 1-4.24-3.774zm-1.033 7.324a51.655 51.655 0 0 0 5.17-2.327 61.505 61.505 0 0 0 4.79 3.395 50.029 50.029 0 0 1-5.307 2.723 59.911 59.911 0 0 1-4.653-3.791zm-1.241 7.03a53.313 53.313 0 0 0 5.773-2.067 55.44 55.44 0 0 0 5.325 3.36 53.85 53.85 0 0 1-5.963 2.55 55.065 55.065 0 0 1-5.118-3.842h-.017zm6.204 4.533a50.957 50.957 0 0 0 5.98-2.654 50.957 50.957 0 0 0 5.98 2.654 49.965 49.965 0 0 1-5.98 3.24 49.98 49.98 0 0 1-5.98-3.24z" fill="#8A3700"/><path d="M14.545 48.976a52.588 52.588 0 0 0 2.946 2.016 49.806 49.806 0 0 0 2.947-2.016c-1-.586-1.982-1.19-2.947-1.844a52.56 52.56 0 0 1-2.946 1.844zM20.163 45.236a54.738 54.738 0 0 0 2.877 1.706 69.242 69.242 0 0 0 2.62-2.292 64.811 64.811 0 0 1-2.826-1.568 69.612 69.612 0 0 1-2.671 2.154zM14.217 56.317a50.196 50.196 0 0 0 3.292 1.965 50.196 50.196 0 0 0 3.291-1.965 55.544 55.544 0 0 1-3.291-1.775 50.599 50.599 0 0 1-3.292 1.775zM9.34 44.65a47.917 47.917 0 0 0 2.62 2.292 54.738 54.738 0 0 0 2.877-1.706 50.347 50.347 0 0 1-2.67-2.154A64.945 64.945 0 0 1 9.34 44.65zM11.34 54.335a56.703 56.703 0 0 0 3.239-1.62 51.69 51.69 0 0 1-2.964-2.136c-1.034.517-2.085 1-3.154 1.447a58.2 58.2 0 0 0 2.878 2.31zM4.653 56.8c1.154-.328 2.292-.724 3.43-1.138a74.624 74.624 0 0 1-2.844-2.395 65.097 65.097 0 0 1-3.257 1.017 61.827 61.827 0 0 0 2.67 2.533V56.8zM3.481 47.235c.81.862 1.637 1.706 2.482 2.516a52.404 52.404 0 0 0 3.05-1.31 57.511 57.511 0 0 1-2.62-2.395c-.965.431-1.947.828-2.93 1.19h.018zM26.9 69.724c.276.07.535.104.793.173a16.398 16.398 0 0 0 1.74-1.879 54.335 54.335 0 0 1-2.532 1.706zM5.549 68.018c.534.672 1.12 1.293 1.74 1.879.259-.052.518-.104.793-.173a54.336 54.336 0 0 1-2.533-1.706zM31.519 47.235a47.403 47.403 0 0 1-2.93-1.189 57.511 57.511 0 0 1-2.619 2.396 57.99 57.99 0 0 0 3.05 1.31 68.48 68.48 0 0 0 2.482-2.517h.017zM14.234 59.936a59.027 59.027 0 0 1-3.274-2.12c-1.172.483-2.344.93-3.55 1.327a56.72 56.72 0 0 0 3.154 2.31 50.87 50.87 0 0 0 3.653-1.5l.017-.017zM12.477 39.291a53.08 53.08 0 0 0 2.585-1.792c-.604-.517-1.207-1.069-1.81-1.62a15.938 15.938 0 0 0-2.947 1.292 62.076 62.076 0 0 0 2.172 2.12zM20.421 52.698a43.655 43.655 0 0 0 3.24 1.62 58.3 58.3 0 0 0 2.878-2.31 52.134 52.134 0 0 1-3.154-1.447 61.679 61.679 0 0 1-2.964 2.137zM32.243 50.871c.465.138.947.276 1.447.414 0-.224-.034-.43-.051-.655-.052-.327-.138-.655-.207-.982-.397.414-.793.827-1.19 1.223zM25.212 40.945c.896.517 1.81 1 2.723 1.448.43-.448.861-.913 1.292-1.396a17.433 17.433 0 0 0-2.034-2.033c-.672.689-1.326 1.361-1.981 1.999v-.018zM21.197 63.452a48.059 48.059 0 0 1-3.706-1.706 65.877 65.877 0 0 1-3.705 1.706 50.353 50.353 0 0 0 3.705 1.93 50.353 50.353 0 0 0 3.706-1.93zM3.05 63.503a49.21 49.21 0 0 0 3.895-.913 67.697 67.697 0 0 1-3.068-2.43c-.689.172-1.378.31-2.068.465.242.896.552 1.758.897 2.585.12.104.224.207.344.31v-.017zM7.065 42.393c.914-.448 1.81-.93 2.723-1.448a71.932 71.932 0 0 1-1.999-1.981 17.293 17.293 0 0 0-2.016 2.033c.43.483.862.948 1.292 1.396zM4.119 43.72s-.104-.12-.155-.172a1.71 1.71 0 0 1-.19.292c.12-.051.224-.086.345-.12zM2.757 50.871c-.413-.413-.792-.827-1.189-1.258-.12.552-.224 1.103-.31 1.672.5-.138 1-.258 1.5-.413zM21.713 70.345a48.185 48.185 0 0 1-4.204-1.638 57.218 57.218 0 0 1-4.205 1.638 54.077 54.077 0 0 0 4.205 1.895 51.314 51.314 0 0 0 4.204-1.895zM9.633 68.277a45.274 45.274 0 0 0 4.17-1.362 48.825 48.825 0 0 1-3.636-2.137c-1.327.431-2.67.828-4.015 1.155a50.97 50.97 0 0 0 3.481 2.326v.018zM33.018 60.608a61.112 61.112 0 0 1-1.895-.448c-1 .844-2.034 1.672-3.068 2.43 1.275.362 2.585.655 3.895.913.086-.069.224-.207.362-.31.155-.38.327-.758.465-1.155.086-.482.172-.947.258-1.43h-.017zM31.777 58.247c.638.155 1.241.293 1.862.414.137-.81.24-1.637.293-2.465a47.8 47.8 0 0 1-2.155 2.051zM20.766 59.936a50.89 50.89 0 0 0 3.653 1.5 50.938 50.938 0 0 0 3.154-2.31A51.207 51.207 0 0 1 24.04 57.8a66.279 66.279 0 0 1-3.274 2.12v.017zM33.001 54.266a59.911 59.911 0 0 1-3.257-1 47.446 47.446 0 0 1-2.843 2.396c1.137.431 2.291.81 3.429 1.138a52.078 52.078 0 0 0 2.654-2.534H33zM28.848 65.95a48.244 48.244 0 0 1-4.015-1.154 60.573 60.573 0 0 1-3.637 2.136 53.49 53.49 0 0 0 4.17 1.362 58.19 58.19 0 0 0 3.482-2.326v-.018zM17.491 43.41a49.23 49.23 0 0 0 2.637-2.051 51.463 51.463 0 0 1-2.637-1.896 60.332 60.332 0 0 1-2.636 1.896c.861.724 1.758 1.396 2.636 2.05zM19.938 37.499c.845.62 1.707 1.223 2.585 1.792a49.702 49.702 0 0 0 2.172-2.12 15.297 15.297 0 0 0-2.93-1.292c-.603.551-1.206 1.086-1.81 1.62h-.017zM30.881 43.72c.121.052.224.086.345.138a2.986 2.986 0 0 0-.19-.31c-.051.051-.103.12-.155.172z" fill="#F39C12"/><path d="M20.076 24.126c-4.463-13.959 5.17-19.111 9.427-19.525-4.17 2.654 0 12.339-6.135 19.043-.638.706-3.292.482-3.292.482zM14.924 24.126c4.463-13.959-5.17-19.111-9.427-19.525 4.17 2.654 0 12.339 6.135 19.043.638.706 3.292.482 3.292.482z" fill="#186B3B"/><path d="M11.546 26.297c0 3.774 2.671 12.029 5.963 12.029 3.291 0 5.962-8.255 5.962-12.029C23.471 13.597 17.51 0 17.51 0s-5.963 12.7-5.963 26.297z" fill="#1F8C4D"/><path d="M17.336 27.056c2.81-14.39 13.718-14.27 17.664-12.563-4.929.327-5.945 10.805-14.545 13.734-.896.31-3.119-1.154-3.119-1.154v-.017z" fill="#1DA155"/><path d="M17.664 27.056C14.854 12.666 3.946 12.786 0 14.493c4.929.327 5.945 10.805 14.545 13.734.896.31 3.119-1.154 3.119-1.154v-.017z" fill="#1DA155"/><path d="M12.08 30.14c0 2.568 2.43 8.186 5.411 8.186 2.982 0 5.412-5.618 5.412-8.186 0-8.65-5.412-17.905-5.412-17.905s-5.41 8.651-5.41 17.905z" fill="#186B3B"/><path d="M17.94 33.742c1.62-9.34 9.874-10.15 14.079-9.34-3.343 1.568-10.72 13.528-13.7 11.511-.793-.534-.38-2.154-.38-2.154v-.017zM17.06 33.742c-1.62-9.34-9.874-10.15-14.079-9.34 3.343 1.568 10.72 13.528 13.7 11.511.793-.534.38-2.154.38-2.154v-.017z" fill="#27AE60"/><path d="M12.597 33.966c0 1.361 2.189 4.377 4.912 4.377 2.722 0 4.911-2.998 4.911-4.377 0-4.618-4.911-9.564-4.911-9.564s-4.912 4.618-4.912 9.564z" fill="#1F8C4D"/><path d="M17.491 35.207c-2.877 0-5.583.879-7.944 2.412.19-.034.38-.051.586-.051 2.154 0 3.188 2.43 2.964 4.325 1.137-1.051 2.912-1.344 4.325-.69 1.413.656 2.344 2.207 2.275 3.74 1.103-.792 2.706-.81 3.826-.034 1.12.758 1.706 2.257 1.378 3.567 1.328.052 2.396 1.206 2.775 2.464.38 1.258.224 2.62.069 3.93.448 1.171.224 2.481 0 3.705-.12.689-.259 1.395-.483 2.05-.344 1-.947 1.93-1.706 2.671a6.027 6.027 0 0 1-1.206 3.154c-.862 1.12-2.085 1.878-3.378 2.447a15.263 15.263 0 0 1-6.669 1.293c-2.878-.104-5.497-1.293-8.289-1.62 2.585 3.429 7.238 5.514 11.477 5.514 9.117 0 16.492-8.702 16.492-19.439 0-10.736-7.393-19.421-16.492-19.421v-.017z" fill="#8D734E" style="mix-blend-mode:multiply" opacity=".7"/><path d="M18.163 36.224c.862-4.12 7.376-5.463 9.875-5.188-2.792 1.62-3.154 6.876-9.289 6.894-.861 0-.585-1.706-.585-1.706zM16.837 36.224c-.862-4.12-7.376-5.463-9.875-5.188 2.792 1.62 3.154 6.876 9.289 6.894.844 0 .585-1.706.585-1.706z" fill="#186B3B"/><path d="M12.597 35.879c-.034 1.361 2.189 2.447 4.912 2.447 2.722 0 4.945-1.069 4.911-2.447-.052-1.723-4.911-4.843-4.911-4.843s-4.86 3.12-4.912 4.843z" fill="#27AE60"/></svg>