<svg width="62" height="51" fill="none" xmlns="http://www.w3.org/2000/svg"><path d="M9.765 28.223c-.04-.98-.04-2.02.245-2.959.184-.612.633-1.428 1.306-1.633.837-.244 1.47.531 1.592 1.286-.245-1.653-.082-3.938.388-5.55a6.844 6.844 0 0 1 1.347-2.45c.816-.897 1.51-.918 2.183.103-.184-.286.245-1.45.327-1.755.183-.633.428-1.266.734-1.857.47-.898 3.225-4.796 4.327-2.531-.245-.49 1.408-2.122 1.714-2.408.714-.653 1.755-1.102 2.755-.939 1.02.184 1.959 1.123 1.755 2.225 1.102-.776 2.734.245 3.04 1.55.307 1.307-.244 2.654-.795 3.878-1.368 3.081-2.715 6.122-3.796 9.285-.878 2.51-3.837 4.571-5.857 6.184-2.51 2-5.245 3.734-8.102 5.183a49.966 49.966 0 0 1-4.53 2c-1.225.47-3.143.653-4.204 1.367 2.51-1.632 4.306-4.244 5.122-7.122.347-1.224.551-2.55.49-3.857h-.04z" fill="#12826C"/><path d="M17.357 42.671c.836.51 1.755 1 2.714 1.184.632.123 1.55.123 2.04-.388.613-.612.225-1.55-.387-2 1.347 1 3.428 1.94 5.06 2.286.899.184 1.92.184 2.797-.02 1.183-.286 1.53-.898.959-1.96.163.286 1.387.47 1.694.551a9.196 9.196 0 0 0 1.979.225c1.02 0 5.755-.571 4.285-2.612.307.428 2.531-.225 2.94-.367.917-.327 1.795-1.02 2.121-2 .327-.98-.06-2.266-1.142-2.592 1.204-.592 1.06-2.51.06-3.408-.999-.898-2.448-1.04-3.774-1.143-3.368-.265-6.674-.51-9.98-1.061-2.632-.429-5.836 1.204-8.224 2.224a46.984 46.984 0 0 0-12.305 7.714c-1 .857-2.061 2.45-3.204 3.061 2.632-1.428 5.796-1.775 8.693-1.122 1.245.286 2.51.735 3.613 1.408l.06.02z" fill="#12826C"/><path d="M25.642 37.61a8.605 8.605 0 0 1-3.612 1.388c-1.082.163-2.102.02-3.184-.143-1.04-.163-2.06-.673-3.122-.571-1.184.122-2.306.694-3.408 1.102-3.204 1.163-7.142 1.408-10.51 2.061 1.266-.245 3.082-2.163 4.102-2.959 2.061-1.633 4.245-3.286 5.694-5.55a31.927 31.927 0 0 0 2.143-3.94c.55-1.203 1.306-2.203 2.734-2.346-.224-2.184.612-4.47 2.184-6 .591-.592 1.49-1.102 2.244-.735-.49-.244 1.164-2.897 1.368-3.142.735-.878 1.306-1.776 2.204-2.53.47-.388 1.02-.776 1.632-.735.613.04 1.143.795.796 1.285a11.798 11.798 0 0 1 4.163-4.51c.776-.49 1.674-.898 2.572-.714.897.163 1.673 1.143 1.326 1.98.327-.837 1.98-1.572 2.735-1.898a8.83 8.83 0 0 1 3.469-.674c2.571 0 4.796 1.204 6.55 3.061 1.51 1.612 2.102 3.918.674 5.816.51 1.47.265 3.184-.653 4.45a4.85 4.85 0 0 1-4.04 1.958c.428 1.816-.184 3.816-1.51 5.102-1.348 1.286-3.368 1.796-5.164 1.306a7.48 7.48 0 0 1-3.632 4.612c-1.755.98-3.918 1.184-5.837.592a8.403 8.403 0 0 1-1.857 1.755l-.061-.02z" fill="#16A085"/><path d="M6.847 49.304c3-3.286 6.285-6.143 9.795-8.877 1.551-1.204 7.204-5.04 6.04-7.184-1.387-2.53-11.264 5.143-12.713 6.082-1.632 1.04-3.244 2.204-5 3-1.49.673-3.285 1.06-4.367 2.367-1.285 1.571-.122 4.367 1.286 5.469.796.633 1.857 1 2.837.734.877-.244 1.53-.938 2.142-1.612l-.02.02z" fill="#E8F1C6"/><path d="M2.786 46.692c-.653-.796-1.53-1.245-2.306-.551-.837.775-.408 2 0 2.877.265.572.735 1.102 1.326 1.347.674.286 1.613.102 1.919-.653.285-.714-.204-2.102-.96-3.02h.02z" fill="#F1C40F"/><path d="M34.52 21.101c.326-.633.59-1.286.938-1.898a44.428 44.428 0 0 1 5.122-7.469c2-2.347 4.143-4.347 6.694-6.04A24.632 24.632 0 0 1 51.17 3.57c1.347-.592 2.857-.734 4.163-1.408-3.469 1.796-6.489 4.347-9.04 7.306-2.857 3.326-5.734 6.653-8.591 9.979a21.321 21.321 0 0 0 9.305-5.449c-4.51 5.306-10.346 8.877-16.346 12.224.857-1.204 1.694-2.285 2.694-3.346.47-.51.837-1.143 1.143-1.776h.02zM37.213 7.102a31.689 31.689 0 0 1-7.714 17.876c-2.184 2.49-4.755 4.633-7.49 6.53-2.632 1.837-5.673 3.184-8.224 5.103 6.53-7.347 12.816-14.877 18.632-22.795a357.705 357.705 0 0 0 2.47-3.429c.53-.734 2.224-2.408 2.306-3.285h.02z" fill="#2ECC71"/><path d="M32.336 28.366c2.04-1.224 4.04-2.47 5.918-3.918 5.142-3.96 9.326-8.98 12.734-14.469-.592.939-.735 2.53-1.123 3.592a40.854 40.854 0 0 1-1.51 3.673c-2.245 4.857-5.408 9.449-9.55 12.979-4.572 3.877-10.47 6.408-16.142 8.224-1.613.51-3.225.96-4.878 1.327-.857.183-1.714.367-2.571.51-.592.102-1.694.061-2.204.347 1.837-1.082 3.755-2.041 5.571-3.143 2.673-1.633 5.122-3.694 7.734-5.428 1.96-1.286 3.98-2.47 5.98-3.674l.04-.02z" fill="#2ECC71"/><path d="M22.54 29.386c5.347-5.203 10.714-10.407 16.612-14.999C46.11 8.98 54.212 4.653 61.742 0c-4.53 2.653-8.673 6-12.326 9.755-3.734 3.857-6.795 8.224-10.244 12.305-3.959 4.673-8.755 8.653-14.142 11.612a49.782 49.782 0 0 1-6.96 3.163c-1.999.735-4.856 1.082-6.509 2.47 3.837-3.184 7.408-6.45 10.98-9.919z" fill="#35EB82"/></svg>