<svg width="212" height="432" fill="none" xmlns="http://www.w3.org/2000/svg"><path d="M206.201 340.315H5.169v91.04H206.2v-91.04z" fill="#E67E22"/><path d="M206.201 340.315H5.169v20.399H206.2v-20.399z" fill="#D35400"/><path d="M211.37 320.086H0v20.229h211.37v-20.229z" fill="#BDC3C7"/><path d="M204.967 11.954H6.403v288.563h198.564V11.954z" fill="#34495E"/><path d="M204.967 130.221H6.403v25.036h198.564v-25.036zM204.967 222.282H6.403v25.036h198.564v-25.036z" fill="#1D2A36"/><path d="M204.967 300.538H6.403L0 320.533h211.37l-6.403-19.995z" fill="#E3E7E8"/><path d="M211.37 11.954H0C0 5.36 5.36 0 11.954 0h187.462c6.594 0 11.954 5.36 11.954 11.954z" fill="#E67E22"/><path d="M204.967 30.95H6.403v22.249c2.105 4.51 6.657 7.657 11.975 7.657 7.296 0 13.21-5.913 13.21-13.209 0 7.296 5.913 13.21 13.209 13.21 7.296 0 13.209-5.914 13.209-13.21 0 7.296 5.913 13.21 13.21 13.21 7.295 0 13.209-5.914 13.209-13.21 0 7.296 5.913 13.21 13.209 13.21 7.296 0 13.209-5.914 13.209-13.21 0 7.296 5.914 13.21 13.21 13.21 7.295 0 13.209-5.914 13.209-13.21 0 7.296 5.913 13.21 13.209 13.21 7.296 0 13.209-5.914 13.209-13.21 0 7.296 5.914 13.21 13.21 13.21 7.296 0 13.209-5.914 13.209-13.21 0 7.296 5.913 13.21 13.209 13.21.553 0 1.106-.043 1.638-.107v-29.8h.021z" fill="#1D2A36"/><path d="M13.21 41.861C5.912 41.861 0 35.948 0 28.652V11.954h26.419v16.698c0 7.296-5.914 13.21-13.21 13.21z" fill="#F1C40F"/><path d="M39.628 41.861c-7.296 0-13.21-5.913-13.21-13.209V11.954h26.42v16.698c0 7.296-5.914 13.21-13.21 13.21z" fill="#C0392B"/><path d="M66.046 41.861c-7.296 0-13.209-5.913-13.209-13.209V11.954h26.419v16.698c0 7.296-5.914 13.21-13.21 13.21z" fill="#F1C40F"/><path d="M92.486 41.861c-7.296 0-13.209-5.913-13.209-13.209V11.954h26.419v16.698c0 7.296-5.914 13.21-13.21 13.21z" fill="#C0392B"/><path d="M118.905 41.861c-7.296 0-13.209-5.913-13.209-13.209V11.954h26.418v16.698c0 7.296-5.913 13.21-13.209 13.21z" fill="#F1C40F"/><path d="M145.324 41.861c-7.296 0-13.21-5.913-13.21-13.209V11.954h26.419v16.698c0 7.296-5.914 13.21-13.209 13.21z" fill="#C0392B"/><path d="M171.742 41.861c-7.296 0-13.209-5.913-13.209-13.209V11.954h26.418v16.698c0 7.296-5.913 13.21-13.209 13.21z" fill="#F1C40F"/><path d="M198.161 41.861c-7.296 0-13.21-5.913-13.21-13.209V11.954h26.419v16.698c0 7.296-5.913 13.21-13.209 13.21z" fill="#C0392B"/><path d="M211.37 218.368H0v7.849h211.37v-7.849z" fill="#F1C40F"/><path d="m211.37 218.368-6.403-10.125H6.403L0 218.368h211.37z" fill="#F39C12"/><path d="M211.37 126.009H0v7.849h211.37v-7.849z" fill="#F1C40F"/><path d="m211.37 126.009-6.403-10.146H6.403L0 126.009h211.37z" fill="#F39C12"/></svg>